# xmcd
#
# Track frame offsets: 
#        150
#        5671
#        36466
#        77192
#        108500
#        115259
#        159681
#        171298
#        187178
#        201482
#        230121
#
# Disc length: 3152 seconds
#
# Revision: 0
# Processed by: cddbd v1.5.2PL0 Copyright (c) Steve Scherf et al.
# Submitted via: ExactAudioCopy v1.0b3
#
DISCID=a20c4e0b
DTITLE=Gov’t Mule -  Beacon Theatre 2012-12-31-D4
DYEAR=2012
DGENRE=Blues
TTITLE0=Introduction
TTITLE1=Thelonius Beck
TTITLE2=Beautifully Broken
TTITLE3=The Hunter
TTITLE4=Drums
TTITLE5=How Many More Years
TTITLE6=Three Kings Medley Introduction
TTITLE7=I'll Play The Blues For You
TTITLE8=The Thrill Is Gone
TTITLE9=Ain't No Sunshine
TTITLE10=The Thrill Is Gone
EXTD=
EXTT0=
EXTT1=
EXTT2=
EXTT3=
EXTT4=
EXTT5=
EXTT6=
EXTT7=
EXTT8=
EXTT9=
EXTT10=
PLAYORDER=
